<svg width="257" height="57" viewBox="0 0 257 57" fill="none" xmlns="http://www.w3.org/2000/svg">
    <g clip-path="url(#clip0_1551_2068)">
        <path d="M0 27.1385V0L5.14286 5.08846V21.4846H11.4286V16.3962L16.5714 21.4846V27.1385H0Z" fill="#4154F1"/>
        <path d="M28 2.26154L28 29.4L22.8571 24.3115L22.8571 7.91538L16.5714 7.91538L16.5714 13.0038L11.4286 7.91538V2.26154L28 2.26154Z" fill="#4154F1"/>
    </g>
    <path d="M47.48 20C46.952 20 46.544 19.864 46.256 19.592C45.984 19.304 45.848 18.896 45.848 18.368V4.712C45.848 4.184 45.984 3.784 46.256 3.512C46.544 3.224 46.952 3.08 47.48 3.08H52.136C54.968 3.08 57.152 3.808 58.688 5.264C60.24 6.72 61.016 8.808 61.016 11.528C61.016 12.888 60.816 14.096 60.416 15.152C60.032 16.192 59.456 17.072 58.688 17.792C57.936 18.512 57.008 19.064 55.904 19.448C54.816 19.816 53.56 20 52.136 20H47.48ZM48.92 17.456H51.944C52.936 17.456 53.792 17.336 54.512 17.096C55.248 16.84 55.856 16.472 56.336 15.992C56.832 15.496 57.2 14.88 57.44 14.144C57.68 13.392 57.8 12.52 57.8 11.528C57.8 9.544 57.312 8.064 56.336 7.088C55.36 6.112 53.896 5.624 51.944 5.624H48.92V17.456ZM65.3773 20.192C64.8813 20.192 64.4973 20.064 64.2253 19.808C63.9693 19.536 63.8413 19.152 63.8413 18.656V9.584C63.8413 9.088 63.9693 8.712 64.2253 8.456C64.4813 8.2 64.8413 8.072 65.3053 8.072C65.7693 8.072 66.1293 8.2 66.3853 8.456C66.6413 8.712 66.7693 9.088 66.7693 9.584V11.096H66.5293C66.7533 10.136 67.1933 9.408 67.8493 8.912C68.5053 8.416 69.3773 8.12 70.4653 8.024C70.8013 7.992 71.0653 8.08 71.2573 8.288C71.4653 8.48 71.5853 8.784 71.6173 9.2C71.6493 9.6 71.5533 9.928 71.3293 10.184C71.1213 10.424 70.8013 10.568 70.3693 10.616L69.8413 10.664C68.8653 10.76 68.1293 11.064 67.6333 11.576C67.1373 12.072 66.8893 12.776 66.8893 13.688V18.656C66.8893 19.152 66.7613 19.536 66.5053 19.808C66.2493 20.064 65.8733 20.192 65.3773 20.192ZM74.1406 20.12C73.5966 20.12 73.1566 19.952 72.8206 19.616C72.5006 19.28 72.3406 18.848 72.3406 18.32C72.3406 17.808 72.5006 17.392 72.8206 17.072C73.1566 16.736 73.5966 16.568 74.1406 16.568C74.7006 16.568 75.1326 16.736 75.4366 17.072C75.7566 17.392 75.9166 17.808 75.9166 18.32C75.9166 18.848 75.7566 19.28 75.4366 19.616C75.1326 19.952 74.7006 20.12 74.1406 20.12ZM80.5258 20.192C80.0298 20.192 79.6378 20.056 79.3498 19.784C79.0778 19.496 78.9418 19.088 78.9418 18.56V4.712C78.9418 4.184 79.0778 3.784 79.3498 3.512C79.6378 3.224 80.0458 3.08 80.5738 3.08H88.9498C89.3658 3.08 89.6778 3.184 89.8858 3.392C90.0938 3.6 90.1978 3.896 90.1978 4.28C90.1978 4.68 90.0938 4.992 89.8858 5.216C89.6778 5.424 89.3658 5.528 88.9498 5.528H82.0138V10.304H88.4458C88.8458 10.304 89.1498 10.408 89.3578 10.616C89.5818 10.824 89.6938 11.12 89.6938 11.504C89.6938 11.904 89.5818 12.216 89.3578 12.44C89.1498 12.648 88.8458 12.752 88.4458 12.752H82.0138V18.56C82.0138 19.648 81.5178 20.192 80.5258 20.192ZM96.0736 20.24C95.0976 20.24 94.2896 20.064 93.6496 19.712C93.0096 19.344 92.5296 18.8 92.2096 18.08C91.9056 17.36 91.7536 16.464 91.7536 15.392V9.584C91.7536 9.072 91.8816 8.696 92.1376 8.456C92.3936 8.2 92.7616 8.072 93.2416 8.072C93.7216 8.072 94.0896 8.2 94.3456 8.456C94.6176 8.696 94.7536 9.072 94.7536 9.584V15.44C94.7536 16.272 94.9216 16.888 95.2576 17.288C95.5936 17.688 96.1296 17.888 96.8656 17.888C97.6656 17.888 98.3216 17.616 98.8336 17.072C99.3456 16.512 99.6016 15.776 99.6016 14.864V9.584C99.6016 9.072 99.7296 8.696 99.9856 8.456C100.242 8.2 100.61 8.072 101.09 8.072C101.57 8.072 101.938 8.2 102.194 8.456C102.466 8.696 102.602 9.072 102.602 9.584V18.656C102.602 19.68 102.114 20.192 101.138 20.192C100.674 20.192 100.314 20.064 100.058 19.808C99.8016 19.536 99.6736 19.152 99.6736 18.656V16.832L100.01 17.552C99.6736 18.416 99.1616 19.08 98.4736 19.544C97.8016 20.008 97.0016 20.24 96.0736 20.24ZM107.548 8.96C107.34 9.216 107.116 9.36 106.876 9.392C106.652 9.424 106.452 9.384 106.276 9.272C106.1 9.144 106.004 8.968 105.988 8.744C105.972 8.504 106.076 8.248 106.3 7.976C106.62 7.576 106.836 7.176 106.948 6.776C107.06 6.376 107.116 6.024 107.116 5.72L107.236 6.512C106.676 6.512 106.22 6.352 105.868 6.032C105.532 5.712 105.364 5.28 105.364 4.736C105.364 4.208 105.524 3.784 105.844 3.464C106.164 3.128 106.596 2.96 107.14 2.96C107.7 2.96 108.14 3.152 108.46 3.536C108.78 3.904 108.94 4.44 108.94 5.144C108.94 5.528 108.9 5.928 108.82 6.344C108.756 6.744 108.62 7.168 108.412 7.616C108.22 8.048 107.932 8.496 107.548 8.96ZM115.294 20.24C114.606 20.24 113.878 20.168 113.11 20.024C112.342 19.88 111.654 19.632 111.046 19.28C110.79 19.12 110.606 18.936 110.494 18.728C110.398 18.504 110.358 18.288 110.374 18.08C110.406 17.856 110.486 17.664 110.614 17.504C110.758 17.344 110.934 17.24 111.142 17.192C111.366 17.144 111.606 17.184 111.862 17.312C112.502 17.616 113.102 17.832 113.662 17.96C114.222 18.072 114.774 18.128 115.318 18.128C116.086 18.128 116.654 18 117.022 17.744C117.406 17.472 117.598 17.12 117.598 16.688C117.598 16.32 117.47 16.04 117.214 15.848C116.974 15.64 116.606 15.488 116.11 15.392L113.71 14.936C112.718 14.744 111.958 14.384 111.43 13.856C110.918 13.312 110.662 12.616 110.662 11.768C110.662 11 110.87 10.336 111.286 9.776C111.718 9.216 112.31 8.784 113.062 8.48C113.814 8.176 114.678 8.024 115.654 8.024C116.358 8.024 117.014 8.104 117.622 8.264C118.246 8.408 118.846 8.64 119.422 8.96C119.662 9.088 119.822 9.256 119.902 9.464C119.998 9.672 120.022 9.888 119.974 10.112C119.926 10.32 119.83 10.512 119.686 10.688C119.542 10.848 119.358 10.952 119.134 11C118.926 11.032 118.686 10.984 118.414 10.856C117.918 10.6 117.438 10.416 116.974 10.304C116.526 10.192 116.094 10.136 115.678 10.136C114.894 10.136 114.31 10.272 113.926 10.544C113.558 10.816 113.374 11.176 113.374 11.624C113.374 11.96 113.486 12.24 113.71 12.464C113.934 12.688 114.278 12.84 114.742 12.92L117.142 13.376C118.182 13.568 118.966 13.92 119.494 14.432C120.038 14.944 120.31 15.632 120.31 16.496C120.31 17.664 119.854 18.584 118.942 19.256C118.03 19.912 116.814 20.24 115.294 20.24ZM131.056 20.192C130.56 20.192 130.176 20.056 129.904 19.784C129.648 19.496 129.52 19.104 129.52 18.608V4.64C129.52 4.128 129.656 3.744 129.928 3.488C130.2 3.216 130.584 3.08 131.08 3.08H136.864C138.72 3.08 140.152 3.544 141.16 4.472C142.168 5.4 142.672 6.696 142.672 8.36C142.672 10.024 142.168 11.328 141.16 12.272C140.152 13.2 138.72 13.664 136.864 13.664H132.592V18.608C132.592 19.104 132.464 19.496 132.208 19.784C131.952 20.056 131.568 20.192 131.056 20.192ZM132.592 11.24H136.384C137.472 11.24 138.296 11 138.856 10.52C139.416 10.024 139.696 9.304 139.696 8.36C139.696 7.416 139.416 6.704 138.856 6.224C138.296 5.744 137.472 5.504 136.384 5.504H132.592V11.24ZM148.896 20.24C147.568 20.24 146.568 19.864 145.896 19.112C145.224 18.344 144.888 17.224 144.888 15.752V4.4C144.888 3.904 145.016 3.528 145.272 3.272C145.528 3.016 145.896 2.888 146.376 2.888C146.856 2.888 147.224 3.016 147.48 3.272C147.752 3.528 147.888 3.904 147.888 4.4V15.608C147.888 16.344 148.04 16.888 148.344 17.24C148.664 17.592 149.112 17.768 149.688 17.768C149.816 17.768 149.936 17.768 150.048 17.768C150.16 17.752 150.272 17.736 150.384 17.72C150.608 17.688 150.76 17.752 150.84 17.912C150.92 18.056 150.96 18.36 150.96 18.824C150.96 19.224 150.88 19.536 150.72 19.76C150.56 19.984 150.296 20.12 149.928 20.168C149.768 20.184 149.6 20.2 149.424 20.216C149.248 20.232 149.072 20.24 148.896 20.24ZM156.416 20.24C155.568 20.24 154.808 20.08 154.136 19.76C153.48 19.424 152.96 18.976 152.576 18.416C152.208 17.856 152.024 17.224 152.024 16.52C152.024 15.656 152.248 14.976 152.696 14.48C153.144 13.968 153.872 13.6 154.88 13.376C155.888 13.152 157.24 13.04 158.936 13.04H160.136V14.768H158.96C157.968 14.768 157.176 14.816 156.584 14.912C155.992 15.008 155.568 15.176 155.312 15.416C155.072 15.64 154.952 15.96 154.952 16.376C154.952 16.904 155.136 17.336 155.504 17.672C155.872 18.008 156.384 18.176 157.04 18.176C157.568 18.176 158.032 18.056 158.432 17.816C158.848 17.56 159.176 17.216 159.416 16.784C159.656 16.352 159.776 15.856 159.776 15.296V12.536C159.776 11.736 159.6 11.16 159.248 10.808C158.896 10.456 158.304 10.28 157.472 10.28C157.008 10.28 156.504 10.336 155.96 10.448C155.432 10.56 154.872 10.752 154.28 11.024C153.976 11.168 153.704 11.208 153.464 11.144C153.24 11.08 153.064 10.952 152.936 10.76C152.808 10.552 152.744 10.328 152.744 10.088C152.744 9.848 152.808 9.616 152.936 9.392C153.064 9.152 153.28 8.976 153.584 8.864C154.32 8.56 155.024 8.344 155.696 8.216C156.384 8.088 157.008 8.024 157.568 8.024C158.72 8.024 159.664 8.2 160.4 8.552C161.152 8.904 161.712 9.44 162.08 10.16C162.448 10.864 162.632 11.776 162.632 12.896V18.656C162.632 19.152 162.512 19.536 162.272 19.808C162.032 20.064 161.688 20.192 161.24 20.192C160.792 20.192 160.44 20.064 160.184 19.808C159.944 19.536 159.824 19.152 159.824 18.656V17.504H160.016C159.904 18.064 159.68 18.552 159.344 18.968C159.024 19.368 158.616 19.68 158.12 19.904C157.624 20.128 157.056 20.24 156.416 20.24ZM168.536 24.512C168.184 24.512 167.896 24.416 167.672 24.224C167.448 24.048 167.312 23.808 167.264 23.504C167.232 23.2 167.288 22.88 167.432 22.544L169.064 18.92V20.168L164.696 10.064C164.552 9.712 164.504 9.384 164.552 9.08C164.6 8.776 164.744 8.536 164.984 8.36C165.24 8.168 165.584 8.072 166.016 8.072C166.384 8.072 166.68 8.16 166.904 8.336C167.128 8.496 167.328 8.808 167.504 9.272L170.744 17.36H170.024L173.336 9.248C173.512 8.8 173.72 8.496 173.96 8.336C174.2 8.16 174.52 8.072 174.92 8.072C175.272 8.072 175.552 8.168 175.76 8.36C175.968 8.536 176.096 8.776 176.144 9.08C176.192 9.368 176.136 9.688 175.976 10.04L170.144 23.36C169.936 23.808 169.712 24.112 169.472 24.272C169.232 24.432 168.92 24.512 168.536 24.512ZM183.43 24.56C182.566 24.56 181.726 24.48 180.91 24.32C180.11 24.16 179.382 23.912 178.726 23.576C178.422 23.416 178.214 23.224 178.102 23C178.006 22.776 177.974 22.544 178.006 22.304C178.054 22.08 178.15 21.88 178.294 21.704C178.454 21.528 178.646 21.408 178.87 21.344C179.094 21.28 179.326 21.312 179.566 21.44C180.27 21.792 180.934 22.016 181.558 22.112C182.198 22.224 182.742 22.28 183.19 22.28C184.262 22.28 185.062 22.016 185.59 21.488C186.134 20.976 186.406 20.208 186.406 19.184V17.024H186.622C186.382 17.84 185.878 18.496 185.11 18.992C184.358 19.472 183.502 19.712 182.542 19.712C181.486 19.712 180.566 19.472 179.782 18.992C178.998 18.496 178.39 17.808 177.958 16.928C177.526 16.048 177.31 15.024 177.31 13.856C177.31 12.976 177.43 12.184 177.67 11.48C177.926 10.76 178.278 10.144 178.726 9.632C179.19 9.12 179.742 8.728 180.382 8.456C181.038 8.168 181.758 8.024 182.542 8.024C183.534 8.024 184.398 8.272 185.134 8.768C185.886 9.248 186.374 9.888 186.598 10.688L186.358 11.288V9.584C186.358 9.088 186.486 8.712 186.742 8.456C187.014 8.2 187.382 8.072 187.846 8.072C188.326 8.072 188.694 8.2 188.95 8.456C189.206 8.712 189.334 9.088 189.334 9.584V18.824C189.334 20.728 188.83 22.16 187.822 23.12C186.814 24.08 185.35 24.56 183.43 24.56ZM183.358 17.432C183.982 17.432 184.518 17.288 184.966 17C185.414 16.712 185.758 16.304 185.998 15.776C186.254 15.232 186.382 14.592 186.382 13.856C186.382 12.752 186.11 11.888 185.566 11.264C185.022 10.624 184.286 10.304 183.358 10.304C182.734 10.304 182.198 10.448 181.75 10.736C181.302 11.024 180.95 11.432 180.694 11.96C180.454 12.488 180.334 13.12 180.334 13.856C180.334 14.96 180.606 15.832 181.15 16.472C181.694 17.112 182.43 17.432 183.358 17.432ZM193.979 20.192C193.483 20.192 193.099 20.064 192.827 19.808C192.571 19.536 192.443 19.152 192.443 18.656V9.584C192.443 9.088 192.571 8.712 192.827 8.456C193.083 8.2 193.443 8.072 193.907 8.072C194.371 8.072 194.731 8.2 194.987 8.456C195.243 8.712 195.371 9.088 195.371 9.584V11.096H195.131C195.355 10.136 195.795 9.408 196.451 8.912C197.107 8.416 197.979 8.12 199.067 8.024C199.403 7.992 199.667 8.08 199.859 8.288C200.067 8.48 200.187 8.784 200.219 9.2C200.251 9.6 200.155 9.928 199.931 10.184C199.723 10.424 199.403 10.568 198.971 10.616L198.443 10.664C197.467 10.76 196.731 11.064 196.235 11.576C195.739 12.072 195.491 12.776 195.491 13.688V18.656C195.491 19.152 195.363 19.536 195.107 19.808C194.851 20.064 194.475 20.192 193.979 20.192ZM207.006 20.24C205.79 20.24 204.734 19.992 203.838 19.496C202.942 19 202.246 18.296 201.75 17.384C201.254 16.456 201.006 15.368 201.006 14.12C201.006 13.176 201.142 12.336 201.414 11.6C201.702 10.848 202.11 10.208 202.638 9.68C203.166 9.136 203.798 8.728 204.534 8.456C205.27 8.168 206.094 8.024 207.006 8.024C208.222 8.024 209.278 8.272 210.174 8.768C211.07 9.264 211.766 9.968 212.262 10.88C212.758 11.792 213.006 12.872 213.006 14.12C213.006 15.064 212.862 15.912 212.574 16.664C212.302 17.416 211.902 18.064 211.374 18.608C210.846 19.136 210.214 19.544 209.478 19.832C208.742 20.104 207.918 20.24 207.006 20.24ZM207.006 17.96C207.598 17.96 208.118 17.816 208.566 17.528C209.014 17.24 209.358 16.816 209.598 16.256C209.854 15.68 209.982 14.968 209.982 14.12C209.982 12.84 209.71 11.888 209.166 11.264C208.622 10.624 207.902 10.304 207.006 10.304C206.414 10.304 205.894 10.448 205.446 10.736C204.998 11.008 204.646 11.432 204.39 12.008C204.15 12.568 204.03 13.272 204.03 14.12C204.03 15.384 204.302 16.344 204.846 17C205.39 17.64 206.11 17.96 207.006 17.96ZM219.73 20.24C218.754 20.24 217.946 20.064 217.306 19.712C216.666 19.344 216.186 18.8 215.866 18.08C215.562 17.36 215.41 16.464 215.41 15.392V9.584C215.41 9.072 215.538 8.696 215.794 8.456C216.05 8.2 216.418 8.072 216.898 8.072C217.378 8.072 217.746 8.2 218.002 8.456C218.274 8.696 218.41 9.072 218.41 9.584V15.44C218.41 16.272 218.578 16.888 218.914 17.288C219.25 17.688 219.786 17.888 220.522 17.888C221.322 17.888 221.978 17.616 222.49 17.072C223.002 16.512 223.258 15.776 223.258 14.864V9.584C223.258 9.072 223.386 8.696 223.642 8.456C223.898 8.2 224.266 8.072 224.746 8.072C225.226 8.072 225.594 8.2 225.85 8.456C226.122 8.696 226.258 9.072 226.258 9.584V18.656C226.258 19.68 225.77 20.192 224.794 20.192C224.33 20.192 223.97 20.064 223.714 19.808C223.458 19.536 223.33 19.152 223.33 18.656V16.832L223.666 17.552C223.33 18.416 222.818 19.08 222.13 19.544C221.458 20.008 220.658 20.24 219.73 20.24ZM230.868 20.192C230.388 20.192 230.02 20.064 229.764 19.808C229.508 19.536 229.38 19.152 229.38 18.656V9.584C229.38 9.088 229.508 8.712 229.764 8.456C230.02 8.2 230.38 8.072 230.844 8.072C231.308 8.072 231.668 8.2 231.924 8.456C232.18 8.712 232.308 9.088 232.308 9.584V11.216L232.044 10.616C232.396 9.768 232.94 9.128 233.676 8.696C234.428 8.248 235.276 8.024 236.22 8.024C237.164 8.024 237.94 8.2 238.548 8.552C239.156 8.904 239.612 9.44 239.916 10.16C240.22 10.864 240.372 11.76 240.372 12.848V18.656C240.372 19.152 240.244 19.536 239.988 19.808C239.732 20.064 239.364 20.192 238.884 20.192C238.404 20.192 238.028 20.064 237.756 19.808C237.5 19.536 237.372 19.152 237.372 18.656V12.992C237.372 12.08 237.196 11.416 236.844 11C236.508 10.584 235.98 10.376 235.26 10.376C234.38 10.376 233.676 10.656 233.148 11.216C232.636 11.76 232.38 12.488 232.38 13.4V18.656C232.38 19.68 231.876 20.192 230.868 20.192ZM247.931 20.24C246.907 20.24 246.003 19.992 245.219 19.496C244.451 19 243.851 18.296 243.419 17.384C242.987 16.456 242.771 15.368 242.771 14.12C242.771 12.856 242.987 11.776 243.419 10.88C243.851 9.968 244.451 9.264 245.219 8.768C246.003 8.272 246.907 8.024 247.931 8.024C248.907 8.024 249.755 8.264 250.475 8.744C251.211 9.224 251.707 9.856 251.963 10.64H251.699V4.4C251.699 3.904 251.827 3.528 252.083 3.272C252.339 3.016 252.707 2.888 253.187 2.888C253.667 2.888 254.035 3.016 254.291 3.272C254.563 3.528 254.699 3.904 254.699 4.4V18.656C254.699 19.152 254.571 19.536 254.315 19.808C254.059 20.064 253.691 20.192 253.211 20.192C252.731 20.192 252.363 20.064 252.107 19.808C251.851 19.536 251.723 19.152 251.723 18.656V16.784L251.987 17.504C251.747 18.336 251.259 19 250.523 19.496C249.787 19.992 248.923 20.24 247.931 20.24ZM248.771 17.96C249.363 17.96 249.883 17.816 250.331 17.528C250.779 17.24 251.123 16.816 251.363 16.256C251.619 15.68 251.747 14.968 251.747 14.12C251.747 12.84 251.475 11.888 250.931 11.264C250.387 10.624 249.667 10.304 248.771 10.304C248.179 10.304 247.659 10.448 247.211 10.736C246.763 11.008 246.411 11.432 246.155 12.008C245.915 12.568 245.795 13.272 245.795 14.12C245.795 15.384 246.067 16.344 246.611 17C247.155 17.64 247.875 17.96 248.771 17.96Z" fill="black"/>
    <path d="M51.344 46.848V47.52H60.848V46.848H51.344ZM51.344 49.416V50.112H60.848V49.416H51.344ZM51.344 44.28V44.952H60.848V44.28H51.344ZM47.984 42.264H64.376V52.104H47.984V42.264ZM57.68 53.304L59.984 51.504C62.36 52.416 65.168 53.64 66.776 54.456L63.656 56.28C62.336 55.464 59.936 54.216 57.68 53.304ZM51.848 51.648L55.04 53.088C53.048 54.432 49.904 55.68 47.432 56.376C46.808 55.68 45.608 54.432 44.84 53.832C47.408 53.4 50.264 52.56 51.848 51.648ZM54.632 34.848H64.256V37.32H54.632V34.848ZM54.728 33.288L57.752 33.984C57.08 36 55.808 37.968 54.464 39.168C53.888 38.664 52.616 37.824 51.896 37.416C53.192 36.432 54.2 34.872 54.728 33.288ZM56.936 36.888H60.104V37.92C60.104 39.624 59.024 41.712 52.208 42.312C51.896 41.544 51.056 40.344 50.432 39.72C56.144 39.48 56.936 38.568 56.936 37.752V36.888ZM59.864 37.584C61.112 38.952 63.704 39.48 67.232 39.576C66.56 40.224 65.744 41.496 65.36 42.36C61.472 41.904 58.928 40.632 57.416 38.04L59.864 37.584ZM45.392 34.536H51.776V37.032H45.392V34.536ZM44.864 38.208H52.328V40.824H44.864V38.208ZM63.008 34.848H63.512L64.016 34.704L66.416 35.424C65.792 36.84 64.904 38.4 64.112 39.408L61.424 38.4C61.976 37.56 62.672 36.264 63.008 35.232V34.848ZM72.296 33.48H75.512V56.28H72.296V33.48ZM68.792 41.448H78.848V44.688H68.792V41.448ZM68.648 35.544L71.048 34.944C71.672 36.744 72.128 39.072 72.2 40.632L69.632 41.28C69.608 39.744 69.2 37.344 68.648 35.544ZM76.64 34.8L79.544 35.376C78.92 37.368 78.224 39.648 77.648 41.088L75.44 40.512C75.92 38.952 76.424 36.528 76.64 34.8ZM85.592 33.456H88.856V56.256H85.592V33.456ZM78.776 48.336L91.112 46.128L91.616 49.368L79.304 51.6L78.776 48.336ZM79.88 36.912L81.56 34.56C82.88 35.352 84.608 36.552 85.4 37.44L83.6 40.056C82.88 39.12 81.2 37.8 79.88 36.912ZM78.872 42.96L80.504 40.464C81.872 41.208 83.696 42.384 84.56 43.272L82.808 46.056C82.016 45.144 80.24 43.824 78.872 42.96ZM70.664 45.312L73.088 46.176C72.584 49.056 71.6 52.536 69.896 54.264C69.632 53.04 68.912 51.216 68.384 50.04C69.416 48.912 70.328 46.968 70.664 45.312ZM76.28 45.408C76.808 46.056 78.656 48.912 79.04 49.584L76.664 52.224C76.16 50.64 75.104 48.168 74.408 46.8L76.28 45.408ZM98.504 39.336H114.392V41.904H98.504V39.336ZM97.496 51.096H115.232V53.88H97.496V51.096ZM104.384 38.424H107.696V56.136H104.384V38.424ZM102.08 47.376V48.192H110.192V47.376H102.08ZM102.08 44.64V45.456H110.192V44.64H102.08ZM99.056 42.576H113.384V50.256H99.056V42.576ZM96.128 35.208H115.04V38.136H96.128V35.208ZM94.496 35.208H97.808V43.2C97.808 47.088 97.424 52.8 95.12 56.232C94.544 55.632 93.104 54.6 92.336 54.24C94.352 51.168 94.496 46.584 94.496 43.2V35.208ZM103.064 34.248L106.4 33.408C106.952 34.368 107.48 35.64 107.72 36.504L104.24 37.512C104.072 36.624 103.544 35.256 103.064 34.248ZM125.288 35.64H138.848V38.616H125.288V35.64ZM130.472 47.064H133.784V56.256H130.472V47.064ZM129.848 46.704L132.32 48.144C131.192 50.784 128.96 53.664 126.776 55.272C126.344 54.456 125.528 53.232 124.808 52.56C126.872 51.408 128.888 49.032 129.848 46.704ZM134.312 46.8C135.464 48.888 137.648 51.264 139.472 52.632C138.776 53.208 137.744 54.288 137.216 55.056C135.44 53.304 133.472 50.256 132.32 47.568L134.312 46.8ZM128.312 42.264V45.672H135.704V42.264H128.312ZM125.672 39.576H138.56V48.36H125.672V39.576ZM128.36 42.864L129.968 42.432C130.376 43.272 130.712 44.4 130.808 45.144L129.104 45.648C129.056 44.88 128.744 43.728 128.36 42.864ZM134.096 42.336L135.992 42.84C135.584 43.872 135.224 44.904 134.888 45.648L133.328 45.168C133.616 44.376 133.952 43.152 134.096 42.336ZM130.376 33.48H133.688V40.68H133.4V47.568H130.64V40.68H130.376V33.48ZM122.264 43.656L124.64 43.008C125.168 44.616 125.696 46.728 125.84 48L123.32 48.816C123.176 47.496 122.744 45.312 122.264 43.656ZM120.176 49.968L122.48 49.56C122.744 51.336 122.96 53.616 123.032 55.152L120.608 55.608C120.608 54.072 120.392 51.744 120.176 49.968ZM117.44 49.56L120.032 49.968C119.912 52.248 119.552 54.648 119.048 56.16C118.472 55.848 117.224 55.488 116.552 55.296C117.104 53.856 117.344 51.624 117.44 49.56ZM117.416 43.32C117.248 42.72 116.768 41.256 116.408 40.464C116.888 40.32 117.272 39.888 117.728 39.168C118.184 38.496 119.528 35.88 120.224 33.36L123.224 34.56C122.24 37.104 120.656 39.864 119.192 41.736V41.808C119.192 41.808 117.416 42.768 117.416 43.32ZM117.416 43.32L117.32 41.016L118.64 40.152L122.792 39.888C122.624 40.704 122.48 41.88 122.456 42.552C118.784 42.888 117.944 43.08 117.416 43.32ZM117.608 48.984C117.464 48.384 116.936 46.872 116.576 46.032C117.224 45.864 117.728 45.336 118.472 44.424C119.264 43.56 121.616 40.056 122.984 36.72L125.744 38.424C124.136 41.616 121.736 44.976 119.432 47.376V47.472C119.432 47.472 117.608 48.432 117.608 48.984ZM117.608 48.984L117.464 46.608L118.808 45.696L124.904 45C124.76 45.816 124.664 47.016 124.664 47.664C119.264 48.408 118.256 48.672 117.608 48.984ZM122.624 49.488L124.76 48.864C125.192 50.4 125.624 52.368 125.792 53.664L123.536 54.36C123.416 53.04 123.008 51.024 122.624 49.488ZM140.816 35.928H150.008V39.216H140.816V35.928ZM150.464 38.376H160.856V41.712H150.464V38.376ZM143.696 37.296H147.152V49.392H143.696V37.296ZM159.224 38.376H162.656C162.656 38.376 162.656 39.48 162.632 39.912C162.416 49.584 162.2 53.184 161.36 54.36C160.688 55.344 160.04 55.656 159.08 55.824C158.24 55.992 156.968 55.992 155.672 55.968C155.624 54.984 155.192 53.496 154.592 52.536C155.744 52.632 156.8 52.632 157.352 52.632C157.784 52.632 158.024 52.536 158.288 52.2C158.864 51.48 159.056 47.952 159.224 39.072V38.376ZM140.48 48.744C142.952 48.264 146.72 47.328 150.176 46.416L150.632 49.728C147.464 50.688 144.008 51.648 141.296 52.392L140.48 48.744ZM153.44 33.864H156.992C156.944 44.28 156.92 51.96 149.84 56.328C149.336 55.416 148.256 54.12 147.392 53.472C153.776 49.776 153.392 43.44 153.44 33.864ZM175.856 44.808L179.408 44.232C179.792 45 180.128 46.08 180.248 46.8L176.552 47.52C176.504 46.776 176.192 45.648 175.856 44.808ZM168.824 45.696H186.992V48.384H168.824V45.696ZM175.568 49.32H182.168V51.936H175.568V49.32ZM181.304 49.32H184.76C184.76 49.32 184.736 50.088 184.688 50.472C184.496 53.232 184.184 54.648 183.584 55.296C182.984 55.896 182.288 56.088 181.448 56.16C180.728 56.256 179.528 56.256 178.232 56.232C178.184 55.344 177.824 54.144 177.32 53.376C178.352 53.472 179.36 53.496 179.84 53.496C180.2 53.496 180.44 53.448 180.68 53.28C180.992 52.968 181.184 51.96 181.304 49.704V49.32ZM174.176 46.944H177.656C177.272 51.312 176.288 54.48 170.432 56.28C170.12 55.464 169.256 54.192 168.56 53.544C173.432 52.272 173.888 50.064 174.176 46.944ZM169.376 38.328H185.72V44.424H169.376V41.808H182.288V40.944H169.376V38.328ZM182.96 33.528L185.576 36.096C180.56 37.2 173.96 37.8 168.296 38.016C168.176 37.248 167.744 36 167.432 35.328C172.976 35.04 179.144 34.416 182.96 33.528ZM167.408 35.328H170.864V43.344C170.864 47.28 170.288 53.256 167.024 56.64C166.544 55.944 165.176 54.504 164.552 54.048C167.192 51.12 167.408 46.704 167.408 43.32V35.328Z" fill="black"/>
    <defs>
        <clipPath id="clip0_1551_2068">
            <rect width="28" height="29.4" fill="white"/>
        </clipPath>
    </defs>
</svg>
