<svg width="283" height="103" viewBox="0 0 283 103" fill="none" xmlns="http://www.w3.org/2000/svg">
    <g clip-path="url(#clip0_1202_743)">
        <path d="M0 19.3846V0L3.67347 3.63462V15.3462H8.16327V11.7115L11.8367 15.3462V19.3846H0Z" fill="#4154F1"/>
        <path d="M20 1.61538L20 21L16.3265 17.3654L16.3265 5.65385L11.8367 5.65385L11.8367 9.28846L8.16327 5.65384V1.61538L20 1.61538Z" fill="#4154F1"/>
    </g>
    <path d="M4.64 56C3.936 56 3.392 55.8187 3.008 55.456C2.64533 55.072 2.464 54.528 2.464 53.824V35.616C2.464 34.912 2.64533 34.3787 3.008 34.016C3.392 33.632 3.936 33.44 4.64 33.44H10.848C14.624 33.44 17.536 34.4107 19.584 36.352C21.6533 38.2933 22.688 41.0773 22.688 44.704C22.688 46.5173 22.4213 48.128 21.888 49.536C21.376 50.9227 20.608 52.096 19.584 53.056C18.5813 54.016 17.344 54.752 15.872 55.264C14.4213 55.7547 12.7467 56 10.848 56H4.64ZM6.56 52.608H10.592C11.9147 52.608 13.056 52.448 14.016 52.128C14.9973 51.7867 15.808 51.296 16.448 50.656C17.1093 49.9947 17.6 49.1733 17.92 48.192C18.24 47.1893 18.4 46.0267 18.4 44.704C18.4 42.0587 17.7493 40.0853 16.448 38.784C15.1467 37.4827 13.1947 36.832 10.592 36.832H6.56V52.608ZM28.503 56.256C27.8417 56.256 27.3297 56.0853 26.967 55.744C26.6257 55.3813 26.455 54.8693 26.455 54.208V42.112C26.455 41.4507 26.6257 40.9493 26.967 40.608C27.3083 40.2667 27.7883 40.096 28.407 40.096C29.0257 40.096 29.5057 40.2667 29.847 40.608C30.1883 40.9493 30.359 41.4507 30.359 42.112V44.128H30.039C30.3377 42.848 30.9243 41.8773 31.799 41.216C32.6737 40.5547 33.8363 40.16 35.287 40.032C35.735 39.9893 36.087 40.1067 36.343 40.384C36.6203 40.64 36.7803 41.0453 36.823 41.6C36.8657 42.1333 36.7377 42.5707 36.439 42.912C36.1617 43.232 35.735 43.424 35.159 43.488L34.455 43.552C33.1537 43.68 32.1723 44.0853 31.511 44.768C30.8497 45.4293 30.519 46.368 30.519 47.584V54.208C30.519 54.8693 30.3483 55.3813 30.007 55.744C29.6657 56.0853 29.1643 56.256 28.503 56.256ZM40.1875 56.16C39.4622 56.16 38.8755 55.936 38.4275 55.488C38.0008 55.04 37.7875 54.464 37.7875 53.76C37.7875 53.0773 38.0008 52.5227 38.4275 52.096C38.8755 51.648 39.4622 51.424 40.1875 51.424C40.9342 51.424 41.5102 51.648 41.9155 52.096C42.3422 52.5227 42.5555 53.0773 42.5555 53.76C42.5555 54.464 42.3422 55.04 41.9155 55.488C41.5102 55.936 40.9342 56.16 40.1875 56.16ZM48.701 56.256C48.0397 56.256 47.517 56.0747 47.133 55.712C46.7703 55.328 46.589 54.784 46.589 54.08V35.616C46.589 34.912 46.7703 34.3787 47.133 34.016C47.517 33.632 48.061 33.44 48.765 33.44H59.933C60.4877 33.44 60.9037 33.5787 61.181 33.856C61.4583 34.1333 61.597 34.528 61.597 35.04C61.597 35.5733 61.4583 35.9893 61.181 36.288C60.9037 36.5653 60.4877 36.704 59.933 36.704H50.685V43.072H59.261C59.7943 43.072 60.1997 43.2107 60.477 43.488C60.7757 43.7653 60.925 44.16 60.925 44.672C60.925 45.2053 60.7757 45.6213 60.477 45.92C60.1997 46.1973 59.7943 46.336 59.261 46.336H50.685V54.08C50.685 55.5307 50.0237 56.256 48.701 56.256ZM69.4315 56.32C68.1302 56.32 67.0528 56.0853 66.1995 55.616C65.3462 55.1253 64.7062 54.4 64.2795 53.44C63.8742 52.48 63.6715 51.2853 63.6715 49.856V42.112C63.6715 41.4293 63.8422 40.928 64.1835 40.608C64.5248 40.2667 65.0155 40.096 65.6555 40.096C66.2955 40.096 66.7862 40.2667 67.1275 40.608C67.4902 40.928 67.6715 41.4293 67.6715 42.112V49.92C67.6715 51.0293 67.8955 51.8507 68.3435 52.384C68.7915 52.9173 69.5062 53.184 70.4875 53.184C71.5542 53.184 72.4288 52.8213 73.1115 52.096C73.7942 51.3493 74.1355 50.368 74.1355 49.152V42.112C74.1355 41.4293 74.3062 40.928 74.6475 40.608C74.9888 40.2667 75.4795 40.096 76.1195 40.096C76.7595 40.096 77.2502 40.2667 77.5915 40.608C77.9542 40.928 78.1355 41.4293 78.1355 42.112V54.208C78.1355 55.5733 77.4848 56.256 76.1835 56.256C75.5648 56.256 75.0848 56.0853 74.7435 55.744C74.4022 55.3813 74.2315 54.8693 74.2315 54.208V51.776L74.6795 52.736C74.2315 53.888 73.5488 54.7733 72.6315 55.392C71.7355 56.0107 70.6688 56.32 69.4315 56.32ZM84.7308 41.28C84.4534 41.6213 84.1548 41.8133 83.8348 41.856C83.5361 41.8987 83.2694 41.8453 83.0348 41.696C82.8001 41.5253 82.6721 41.2907 82.6508 40.992C82.6294 40.672 82.7681 40.3307 83.0668 39.968C83.4934 39.4347 83.7814 38.9013 83.9308 38.368C84.0801 37.8347 84.1548 37.3653 84.1548 36.96L84.3148 38.016C83.5681 38.016 82.9601 37.8027 82.4908 37.376C82.0428 36.9493 81.8188 36.3733 81.8188 35.648C81.8188 34.944 82.0321 34.3787 82.4588 33.952C82.8854 33.504 83.4614 33.28 84.1868 33.28C84.9334 33.28 85.5201 33.536 85.9468 34.048C86.3734 34.5387 86.5868 35.2533 86.5868 36.192C86.5868 36.704 86.5334 37.2373 86.4268 37.792C86.3414 38.3253 86.1601 38.8907 85.8828 39.488C85.6268 40.064 85.2428 40.6613 84.7308 41.28ZM95.058 56.32C94.1407 56.32 93.17 56.224 92.146 56.032C91.122 55.84 90.2047 55.5093 89.394 55.04C89.0527 54.8267 88.8073 54.5813 88.658 54.304C88.53 54.0053 88.4767 53.7173 88.498 53.44C88.5407 53.1413 88.6473 52.8853 88.818 52.672C89.01 52.4587 89.2447 52.32 89.522 52.256C89.8207 52.192 90.1407 52.2453 90.482 52.416C91.3353 52.8213 92.1353 53.1093 92.882 53.28C93.6287 53.4293 94.3647 53.504 95.09 53.504C96.114 53.504 96.8713 53.3333 97.362 52.992C97.874 52.6293 98.13 52.16 98.13 51.584C98.13 51.0933 97.9593 50.72 97.618 50.464C97.298 50.1867 96.8073 49.984 96.146 49.856L92.946 49.248C91.6233 48.992 90.61 48.512 89.906 47.808C89.2233 47.0827 88.882 46.1547 88.882 45.024C88.882 44 89.1593 43.1147 89.714 42.368C90.29 41.6213 91.0793 41.0453 92.082 40.64C93.0847 40.2347 94.2367 40.032 95.538 40.032C96.4767 40.032 97.3513 40.1387 98.162 40.352C98.994 40.544 99.794 40.8533 100.562 41.28C100.882 41.4507 101.095 41.6747 101.202 41.952C101.33 42.2293 101.362 42.5173 101.298 42.816C101.234 43.0933 101.106 43.3493 100.914 43.584C100.722 43.7973 100.477 43.936 100.178 44C99.9007 44.0427 99.5807 43.9787 99.218 43.808C98.5567 43.4667 97.9167 43.2213 97.298 43.072C96.7007 42.9227 96.1247 42.848 95.57 42.848C94.5247 42.848 93.746 43.0293 93.234 43.392C92.7433 43.7547 92.498 44.2347 92.498 44.832C92.498 45.28 92.6473 45.6533 92.946 45.952C93.2447 46.2507 93.7033 46.4533 94.322 46.56L97.522 47.168C98.9087 47.424 99.954 47.8933 100.658 48.576C101.383 49.2587 101.746 50.176 101.746 51.328C101.746 52.8853 101.138 54.112 99.922 55.008C98.706 55.8827 97.0847 56.32 95.058 56.32ZM116.075 56.256C115.413 56.256 114.901 56.0747 114.539 55.712C114.197 55.328 114.027 54.8053 114.027 54.144V35.52C114.027 34.8373 114.208 34.3253 114.571 33.984C114.933 33.6213 115.445 33.44 116.107 33.44H123.819C126.293 33.44 128.203 34.0587 129.547 35.296C130.891 36.5333 131.562 38.2613 131.562 40.48C131.562 42.6987 130.891 44.4373 129.547 45.696C128.203 46.9333 126.293 47.552 123.819 47.552H118.123V54.144C118.123 54.8053 117.952 55.328 117.611 55.712C117.269 56.0747 116.757 56.256 116.075 56.256ZM118.123 44.32H123.179C124.629 44.32 125.728 44 126.475 43.36C127.221 42.6987 127.595 41.7387 127.595 40.48C127.595 39.2213 127.221 38.272 126.475 37.632C125.728 36.992 124.629 36.672 123.179 36.672H118.123V44.32ZM139.862 56.32C138.091 56.32 136.758 55.8187 135.862 54.816C134.966 53.792 134.518 52.2987 134.518 50.336V35.2C134.518 34.5387 134.688 34.0373 135.03 33.696C135.371 33.3547 135.862 33.184 136.502 33.184C137.142 33.184 137.632 33.3547 137.974 33.696C138.336 34.0373 138.518 34.5387 138.518 35.2V50.144C138.518 51.1253 138.72 51.8507 139.126 52.32C139.552 52.7893 140.15 53.024 140.918 53.024C141.088 53.024 141.248 53.024 141.398 53.024C141.547 53.0027 141.696 52.9813 141.845 52.96C142.144 52.9173 142.347 53.0027 142.454 53.216C142.56 53.408 142.614 53.8133 142.614 54.432C142.614 54.9653 142.507 55.3813 142.294 55.68C142.08 55.9787 141.728 56.16 141.238 56.224C141.024 56.2453 140.8 56.2667 140.566 56.288C140.331 56.3093 140.096 56.32 139.862 56.32ZM149.888 56.32C148.758 56.32 147.744 56.1067 146.848 55.68C145.974 55.232 145.28 54.6347 144.768 53.888C144.278 53.1413 144.032 52.2987 144.032 51.36C144.032 50.208 144.331 49.3013 144.928 48.64C145.526 47.9573 146.496 47.4667 147.84 47.168C149.184 46.8693 150.987 46.72 153.248 46.72H154.848V49.024H153.28C151.958 49.024 150.902 49.088 150.112 49.216C149.323 49.344 148.758 49.568 148.416 49.888C148.096 50.1867 147.936 50.6133 147.936 51.168C147.936 51.872 148.182 52.448 148.672 52.896C149.163 53.344 149.846 53.568 150.72 53.568C151.424 53.568 152.043 53.408 152.576 53.088C153.131 52.7467 153.568 52.288 153.888 51.712C154.208 51.136 154.368 50.4747 154.368 49.728V46.048C154.368 44.9813 154.134 44.2133 153.664 43.744C153.195 43.2747 152.406 43.04 151.296 43.04C150.678 43.04 150.006 43.1147 149.28 43.264C148.576 43.4133 147.83 43.6693 147.04 44.032C146.635 44.224 146.272 44.2773 145.952 44.192C145.654 44.1067 145.419 43.936 145.248 43.68C145.078 43.4027 144.992 43.104 144.992 42.784C144.992 42.464 145.078 42.1547 145.248 41.856C145.419 41.536 145.707 41.3013 146.112 41.152C147.094 40.7467 148.032 40.4587 148.928 40.288C149.846 40.1173 150.678 40.032 151.424 40.032C152.96 40.032 154.219 40.2667 155.2 40.736C156.203 41.2053 156.95 41.92 157.44 42.88C157.931 43.8187 158.176 45.0347 158.176 46.528V54.208C158.176 54.8693 158.016 55.3813 157.696 55.744C157.376 56.0853 156.918 56.256 156.32 56.256C155.723 56.256 155.254 56.0853 154.912 55.744C154.592 55.3813 154.432 54.8693 154.432 54.208V52.672H154.688C154.539 53.4187 154.24 54.0693 153.792 54.624C153.366 55.1573 152.822 55.5733 152.16 55.872C151.499 56.1707 150.742 56.32 149.888 56.32ZM166.048 62.016C165.579 62.016 165.195 61.888 164.896 61.632C164.597 61.3973 164.416 61.0773 164.352 60.672C164.309 60.2667 164.384 59.84 164.576 59.392L166.752 54.56V56.224L160.928 42.752C160.736 42.2827 160.672 41.8453 160.736 41.44C160.8 41.0347 160.992 40.7147 161.312 40.48C161.653 40.224 162.112 40.096 162.688 40.096C163.179 40.096 163.573 40.2133 163.872 40.448C164.171 40.6613 164.437 41.0773 164.672 41.696L168.992 52.48H168.032L172.448 41.664C172.683 41.0667 172.96 40.6613 173.28 40.448C173.6 40.2133 174.027 40.096 174.56 40.096C175.029 40.096 175.403 40.224 175.68 40.48C175.957 40.7147 176.128 41.0347 176.192 41.44C176.256 41.824 176.181 42.2507 175.968 42.72L168.192 60.48C167.915 61.0773 167.616 61.4827 167.296 61.696C166.976 61.9093 166.56 62.016 166.048 62.016ZM185.907 62.08C184.755 62.08 183.635 61.9733 182.547 61.76C181.481 61.5467 180.51 61.216 179.635 60.768C179.23 60.5547 178.953 60.2987 178.803 60C178.675 59.7013 178.633 59.392 178.675 59.072C178.739 58.7733 178.867 58.5067 179.059 58.272C179.273 58.0373 179.529 57.8773 179.827 57.792C180.126 57.7067 180.435 57.7493 180.755 57.92C181.694 58.3893 182.579 58.688 183.411 58.816C184.265 58.9653 184.99 59.04 185.587 59.04C187.017 59.04 188.083 58.688 188.787 57.984C189.513 57.3013 189.875 56.2773 189.875 54.912V52.032H190.163C189.843 53.12 189.171 53.9947 188.147 54.656C187.145 55.296 186.003 55.616 184.723 55.616C183.315 55.616 182.089 55.296 181.043 54.656C179.998 53.9947 179.187 53.0773 178.611 51.904C178.035 50.7307 177.747 49.3653 177.747 47.808C177.747 46.6347 177.907 45.5787 178.227 44.64C178.569 43.68 179.038 42.8587 179.635 42.176C180.254 41.4933 180.99 40.9707 181.843 40.608C182.718 40.224 183.678 40.032 184.723 40.032C186.046 40.032 187.198 40.3627 188.179 41.024C189.182 41.664 189.833 42.5173 190.131 43.584L189.811 44.384V42.112C189.811 41.4507 189.982 40.9493 190.323 40.608C190.686 40.2667 191.177 40.096 191.795 40.096C192.435 40.096 192.926 40.2667 193.267 40.608C193.609 40.9493 193.779 41.4507 193.779 42.112V54.432C193.779 56.9707 193.107 58.88 191.763 60.16C190.419 61.44 188.467 62.08 185.907 62.08ZM185.811 52.576C186.643 52.576 187.358 52.384 187.955 52C188.553 51.616 189.011 51.072 189.331 50.368C189.673 49.6427 189.843 48.7893 189.843 47.808C189.843 46.336 189.481 45.184 188.755 44.352C188.03 43.4987 187.049 43.072 185.811 43.072C184.979 43.072 184.265 43.264 183.667 43.648C183.07 44.032 182.601 44.576 182.259 45.28C181.939 45.984 181.779 46.8267 181.779 47.808C181.779 49.28 182.142 50.4427 182.867 51.296C183.593 52.1493 184.574 52.576 185.811 52.576ZM199.972 56.256C199.31 56.256 198.798 56.0853 198.436 55.744C198.094 55.3813 197.924 54.8693 197.924 54.208V42.112C197.924 41.4507 198.094 40.9493 198.436 40.608C198.777 40.2667 199.257 40.096 199.876 40.096C200.494 40.096 200.974 40.2667 201.316 40.608C201.657 40.9493 201.828 41.4507 201.828 42.112V44.128H201.508C201.806 42.848 202.393 41.8773 203.268 41.216C204.142 40.5547 205.305 40.16 206.756 40.032C207.204 39.9893 207.556 40.1067 207.812 40.384C208.089 40.64 208.249 41.0453 208.292 41.6C208.334 42.1333 208.206 42.5707 207.908 42.912C207.63 43.232 207.204 43.424 206.628 43.488L205.924 43.552C204.622 43.68 203.641 44.0853 202.98 44.768C202.318 45.4293 201.988 46.368 201.988 47.584V54.208C201.988 54.8693 201.817 55.3813 201.476 55.744C201.134 56.0853 200.633 56.256 199.972 56.256ZM217.341 56.32C215.72 56.32 214.312 55.9893 213.117 55.328C211.922 54.6667 210.994 53.728 210.333 52.512C209.672 51.2747 209.341 49.824 209.341 48.16C209.341 46.9013 209.522 45.7813 209.885 44.8C210.269 43.7973 210.813 42.944 211.517 42.24C212.221 41.5147 213.064 40.9707 214.045 40.608C215.026 40.224 216.125 40.032 217.341 40.032C218.962 40.032 220.37 40.3627 221.565 41.024C222.76 41.6853 223.688 42.624 224.349 43.84C225.01 45.056 225.341 46.496 225.341 48.16C225.341 49.4187 225.149 50.5493 224.765 51.552C224.402 52.5547 223.869 53.4187 223.165 54.144C222.461 54.848 221.618 55.392 220.637 55.776C219.656 56.1387 218.557 56.32 217.341 56.32ZM217.341 53.28C218.13 53.28 218.824 53.088 219.421 52.704C220.018 52.32 220.477 51.7547 220.797 51.008C221.138 50.24 221.309 49.2907 221.309 48.16C221.309 46.4533 220.946 45.184 220.221 44.352C219.496 43.4987 218.536 43.072 217.341 43.072C216.552 43.072 215.858 43.264 215.261 43.648C214.664 44.0107 214.194 44.576 213.853 45.344C213.533 46.0907 213.373 47.0293 213.373 48.16C213.373 49.8453 213.736 51.1253 214.461 52C215.186 52.8533 216.146 53.28 217.341 53.28ZM234.307 56.32C233.005 56.32 231.928 56.0853 231.075 55.616C230.221 55.1253 229.581 54.4 229.155 53.44C228.749 52.48 228.547 51.2853 228.547 49.856V42.112C228.547 41.4293 228.717 40.928 229.059 40.608C229.4 40.2667 229.891 40.096 230.531 40.096C231.171 40.096 231.661 40.2667 232.003 40.608C232.365 40.928 232.547 41.4293 232.547 42.112V49.92C232.547 51.0293 232.771 51.8507 233.219 52.384C233.667 52.9173 234.381 53.184 235.363 53.184C236.429 53.184 237.304 52.8213 237.987 52.096C238.669 51.3493 239.011 50.368 239.011 49.152V42.112C239.011 41.4293 239.181 40.928 239.523 40.608C239.864 40.2667 240.355 40.096 240.995 40.096C241.635 40.096 242.125 40.2667 242.467 40.608C242.829 40.928 243.01 41.4293 243.01 42.112V54.208C243.01 55.5733 242.36 56.256 241.059 56.256C240.44 56.256 239.96 56.0853 239.619 55.744C239.277 55.3813 239.107 54.8693 239.107 54.208V51.776L239.555 52.736C239.107 53.888 238.424 54.7733 237.507 55.392C236.611 56.0107 235.544 56.32 234.307 56.32ZM249.158 56.256C248.518 56.256 248.027 56.0853 247.686 55.744C247.344 55.3813 247.174 54.8693 247.174 54.208V42.112C247.174 41.4507 247.344 40.9493 247.686 40.608C248.027 40.2667 248.507 40.096 249.126 40.096C249.744 40.096 250.224 40.2667 250.566 40.608C250.907 40.9493 251.078 41.4507 251.078 42.112V44.288L250.726 43.488C251.195 42.3573 251.92 41.504 252.902 40.928C253.904 40.3307 255.035 40.032 256.294 40.032C257.552 40.032 258.587 40.2667 259.398 40.736C260.208 41.2053 260.816 41.92 261.222 42.88C261.627 43.8187 261.83 45.0133 261.83 46.464V54.208C261.83 54.8693 261.659 55.3813 261.318 55.744C260.976 56.0853 260.486 56.256 259.846 56.256C259.206 56.256 258.704 56.0853 258.342 55.744C258 55.3813 257.83 54.8693 257.83 54.208V46.656C257.83 45.44 257.595 44.5547 257.126 44C256.678 43.4453 255.974 43.168 255.014 43.168C253.84 43.168 252.902 43.5413 252.198 44.288C251.515 45.0133 251.174 45.984 251.174 47.2V54.208C251.174 55.5733 250.502 56.256 249.158 56.256ZM271.909 56.32C270.543 56.32 269.338 55.9893 268.293 55.328C267.269 54.6667 266.469 53.728 265.893 52.512C265.317 51.2747 265.029 49.824 265.029 48.16C265.029 46.4747 265.317 45.0347 265.893 43.84C266.469 42.624 267.269 41.6853 268.293 41.024C269.338 40.3627 270.543 40.032 271.909 40.032C273.21 40.032 274.341 40.352 275.301 40.992C276.282 41.632 276.943 42.4747 277.285 43.52H276.933V35.2C276.933 34.5387 277.103 34.0373 277.445 33.696C277.786 33.3547 278.277 33.184 278.917 33.184C279.557 33.184 280.047 33.3547 280.389 33.696C280.751 34.0373 280.933 34.5387 280.933 35.2V54.208C280.933 54.8693 280.762 55.3813 280.421 55.744C280.079 56.0853 279.589 56.256 278.949 56.256C278.309 56.256 277.818 56.0853 277.477 55.744C277.135 55.3813 276.965 54.8693 276.965 54.208V51.712L277.317 52.672C276.997 53.7813 276.346 54.6667 275.365 55.328C274.383 55.9893 273.231 56.32 271.909 56.32ZM273.029 53.28C273.818 53.28 274.511 53.088 275.109 52.704C275.706 52.32 276.165 51.7547 276.485 51.008C276.826 50.24 276.997 49.2907 276.997 48.16C276.997 46.4533 276.634 45.184 275.909 44.352C275.183 43.4987 274.223 43.072 273.029 43.072C272.239 43.072 271.546 43.264 270.949 43.648C270.351 44.0107 269.882 44.576 269.541 45.344C269.221 46.0907 269.061 47.0293 269.061 48.16C269.061 49.8453 269.423 51.1253 270.149 52C270.874 52.8533 271.834 53.28 273.029 53.28Z" fill="black"/>
    <path d="M9.792 89.464V90.36H22.464V89.464H9.792ZM9.792 92.888V93.816H22.464V92.888H9.792ZM9.792 86.04V86.936H22.464V86.04H9.792ZM5.312 83.352H27.168V96.472H5.312V83.352ZM18.24 98.072L21.312 95.672C22.3787 96.0773 23.4667 96.5147 24.576 96.984C25.7067 97.4533 26.7733 97.9227 27.776 98.392C28.8 98.84 29.664 99.2453 30.368 99.608L26.208 102.04C25.632 101.677 24.9067 101.261 24.032 100.792C23.1787 100.344 22.2507 99.8747 21.248 99.384C20.2453 98.9147 19.2427 98.4773 18.24 98.072ZM10.464 95.864L14.72 97.784C13.8453 98.3813 12.8213 98.9573 11.648 99.512C10.496 100.067 9.30133 100.568 8.064 101.016C6.848 101.464 5.68533 101.848 4.576 102.168C4.29867 101.848 3.95733 101.475 3.552 101.048C3.14667 100.621 2.72 100.195 2.272 99.768C1.84533 99.3627 1.46133 99.032 1.12 98.776C2.272 98.584 3.424 98.3387 4.576 98.04C5.74933 97.7413 6.848 97.4107 7.872 97.048C8.896 96.664 9.76 96.2693 10.464 95.864ZM14.176 73.464H27.008V76.76H14.176V73.464ZM14.304 71.384L18.336 72.312C17.888 73.656 17.2693 74.9467 16.48 76.184C15.6907 77.4 14.848 78.4133 13.952 79.224C13.696 78.9893 13.3547 78.7333 12.928 78.456C12.5227 78.1573 12.096 77.8693 11.648 77.592C11.2213 77.2933 10.848 77.0587 10.528 76.888C11.4027 76.2267 12.16 75.4053 12.8 74.424C13.4613 73.4427 13.9627 72.4293 14.304 71.384ZM17.248 76.184H21.472V77.56C21.472 78.136 21.344 78.7227 21.088 79.32C20.832 79.9173 20.3413 80.4933 19.616 81.048C18.8907 81.5813 17.8347 82.0613 16.448 82.488C15.0613 82.9147 13.2267 83.224 10.944 83.416C10.7307 82.904 10.3893 82.3067 9.92 81.624C9.45067 80.92 9.00267 80.3653 8.576 79.96C10.4747 79.8747 12 79.7467 13.152 79.576C14.304 79.384 15.168 79.1707 15.744 78.936C16.3413 78.7013 16.736 78.4453 16.928 78.168C17.1413 77.8907 17.248 77.6133 17.248 77.336V76.184ZM21.152 77.112C21.7067 77.7093 22.4533 78.2 23.392 78.584C24.3307 78.968 25.44 79.256 26.72 79.448C28 79.6187 29.4187 79.7253 30.976 79.768C30.528 80.1947 30.0587 80.7813 29.568 81.528C29.0987 82.2533 28.736 82.904 28.48 83.48C26.752 83.2667 25.216 82.936 23.872 82.488C22.528 82.0187 21.3653 81.4 20.384 80.632C19.4027 79.8427 18.5707 78.872 17.888 77.72L21.152 77.112ZM1.856 73.048H10.368V76.376H1.856V73.048ZM1.152 77.944H11.104V81.432H1.152V77.944ZM25.344 73.464H26.016L26.688 73.272L29.888 74.232C29.4827 75.1707 29.0027 76.12 28.448 77.08C27.8933 78.04 27.3493 78.8613 26.816 79.544L23.232 78.2C23.5947 77.6453 23.9787 76.9733 24.384 76.184C24.8107 75.3947 25.1307 74.6587 25.344 73.976V73.464ZM37.728 71.64H42.016V102.04H37.728V71.64ZM33.056 82.264H46.464V86.584H33.056V82.264ZM32.864 74.392L36.064 73.592C36.3413 74.3813 36.5867 75.2347 36.8 76.152C37.0347 77.0693 37.216 77.9653 37.344 78.84C37.4933 79.6933 37.5787 80.472 37.6 81.176L34.176 82.04C34.176 81.3573 34.112 80.5787 33.984 79.704C33.8773 78.808 33.728 77.9013 33.536 76.984C33.344 76.0453 33.12 75.1813 32.864 74.392ZM43.52 73.4L47.392 74.168C47.1147 75.0427 46.8267 75.9493 46.528 76.888C46.2507 77.8267 45.9627 78.7227 45.664 79.576C45.3867 80.408 45.12 81.144 44.864 81.784L41.92 81.016C42.1333 80.312 42.3467 79.5227 42.56 78.648C42.7733 77.752 42.9653 76.8453 43.136 75.928C43.3067 75.0107 43.4347 74.168 43.52 73.4ZM55.456 71.608H59.808V102.008H55.456V71.608ZM46.368 91.448L62.816 88.504L63.488 92.824L47.072 95.8L46.368 91.448ZM47.84 76.216L50.08 73.08C50.6773 73.4213 51.296 73.816 51.936 74.264C52.5973 74.712 53.216 75.1707 53.792 75.64C54.3893 76.088 54.8587 76.5147 55.2 76.92L52.8 80.408C52.48 79.9813 52.0427 79.5227 51.488 79.032C50.9333 78.5413 50.336 78.0507 49.696 77.56C49.056 77.048 48.4373 76.6 47.84 76.216ZM46.496 84.28L48.672 80.952C49.2907 81.272 49.9413 81.656 50.624 82.104C51.3067 82.5307 51.9573 82.968 52.576 83.416C53.1947 83.864 53.696 84.2907 54.08 84.696L51.744 88.408C51.4027 88.0027 50.9333 87.5547 50.336 87.064C49.7387 86.5733 49.0987 86.0827 48.416 85.592C47.7547 85.1013 47.1147 84.664 46.496 84.28ZM35.552 87.416L38.784 88.568C38.5707 89.848 38.272 91.1813 37.888 92.568C37.504 93.9333 37.0347 95.2133 36.48 96.408C35.9467 97.6027 35.296 98.584 34.528 99.352C34.4213 98.7973 34.2507 98.1893 34.016 97.528C33.7813 96.8453 33.5253 96.1733 33.248 95.512C32.992 94.8293 32.7467 94.232 32.512 93.72C32.9813 93.208 33.4187 92.6107 33.824 91.928C34.2293 91.224 34.5813 90.4773 34.88 89.688C35.1787 88.8987 35.4027 88.1413 35.552 87.416ZM43.04 87.544C43.2107 87.7573 43.4667 88.12 43.808 88.632C44.1707 89.144 44.544 89.7093 44.928 90.328C45.3333 90.9253 45.696 91.48 46.016 91.992C46.3573 92.504 46.592 92.8773 46.72 93.112L43.552 96.632C43.3813 96.0987 43.168 95.512 42.912 94.872C42.6773 94.232 42.4213 93.5813 42.144 92.92C41.8667 92.2373 41.5893 91.5973 41.312 91C41.0347 90.3813 40.7787 89.848 40.544 89.4L43.04 87.544ZM72.672 79.448H93.856V82.872H72.672V79.448ZM71.328 95.128H94.976V98.84H71.328V95.128ZM80.512 78.232H84.928V101.848H80.512V78.232ZM77.44 90.168V91.256H88.256V90.168H77.44ZM77.44 86.52V87.608H88.256V86.52H77.44ZM73.408 83.768H92.512V94.008H73.408V83.768ZM69.504 73.944H94.72V77.848H69.504V73.944ZM67.328 73.944H71.744V84.6C71.744 85.9013 71.7013 87.32 71.616 88.856C71.5307 90.392 71.36 91.9493 71.104 93.528C70.848 95.1067 70.4853 96.6213 70.016 98.072C69.5467 99.5227 68.928 100.824 68.16 101.976C67.904 101.699 67.5413 101.379 67.072 101.016C66.624 100.675 66.1547 100.344 65.664 100.024C65.1947 99.704 64.7893 99.4693 64.448 99.32C65.1307 98.296 65.664 97.1653 66.048 95.928C66.432 94.6907 66.7093 93.4213 66.88 92.12C67.072 90.7973 67.1893 89.496 67.232 88.216C67.296 86.936 67.328 85.7307 67.328 84.6V73.944ZM78.752 72.664L83.2 71.544C83.5627 72.184 83.904 72.888 84.224 73.656C84.5653 74.424 84.8107 75.096 84.96 75.672L80.32 77.016C80.2133 76.4187 80 75.7147 79.68 74.904C79.3813 74.072 79.072 73.3253 78.752 72.664ZM108.384 74.52H126.464V78.488H108.384V74.52ZM115.296 89.752H119.712V102.008H115.296V89.752ZM114.464 89.272L117.76 91.192C117.269 92.3653 116.629 93.5493 115.84 94.744C115.051 95.9173 114.187 97.0267 113.248 98.072C112.309 99.096 111.349 99.9707 110.368 100.696C110.091 100.141 109.707 99.512 109.216 98.808C108.725 98.104 108.235 97.528 107.744 97.08C108.661 96.568 109.547 95.896 110.4 95.064C111.275 94.232 112.064 93.3147 112.768 92.312C113.472 91.3093 114.037 90.296 114.464 89.272ZM120.416 89.4C120.928 90.3173 121.568 91.2667 122.336 92.248C123.104 93.208 123.915 94.1147 124.768 94.968C125.643 95.8213 126.485 96.5573 127.296 97.176C126.827 97.56 126.293 98.072 125.696 98.712C125.12 99.3307 124.651 99.896 124.288 100.408C123.499 99.6187 122.699 98.68 121.888 97.592C121.077 96.4827 120.309 95.3093 119.584 94.072C118.88 92.8347 118.272 91.6187 117.76 90.424L120.416 89.4ZM112.416 83.352V87.896H122.272V83.352H112.416ZM108.896 79.768H126.08V91.48H108.896V79.768ZM112.48 84.152L114.624 83.576C114.901 84.1307 115.136 84.7493 115.328 85.432C115.541 86.1147 115.68 86.7013 115.744 87.192L113.472 87.864C113.451 87.352 113.344 86.7547 113.152 86.072C112.96 85.368 112.736 84.728 112.48 84.152ZM120.128 83.448L122.656 84.12C122.379 84.8027 122.123 85.4747 121.888 86.136C121.653 86.7973 121.419 87.3733 121.184 87.864L119.104 87.224C119.232 86.8613 119.36 86.456 119.488 86.008C119.637 85.56 119.765 85.112 119.872 84.664C119.979 84.216 120.064 83.8107 120.128 83.448ZM115.168 71.64H119.584V81.24H119.2V90.424H115.52V81.24H115.168V71.64ZM104.352 85.208L107.52 84.344C107.755 85.048 107.979 85.816 108.192 86.648C108.427 87.4587 108.619 88.248 108.768 89.016C108.939 89.7627 109.056 90.424 109.12 91L105.76 92.088C105.696 91.4907 105.589 90.7973 105.44 90.008C105.312 89.2187 105.152 88.408 104.96 87.576C104.768 86.7227 104.565 85.9333 104.352 85.208ZM101.568 93.624L104.64 93.08C104.811 94.2533 104.96 95.5333 105.088 96.92C105.237 98.3067 105.333 99.512 105.376 100.536L102.144 101.144C102.144 100.461 102.112 99.6933 102.048 98.84C102.005 97.9653 101.941 97.08 101.856 96.184C101.771 95.2667 101.675 94.4133 101.568 93.624ZM97.92 93.08L101.376 93.624C101.291 95.1387 101.131 96.6427 100.896 98.136C100.683 99.6293 100.405 100.877 100.064 101.88C99.68 101.667 99.136 101.453 98.432 101.24C97.7493 101.027 97.184 100.856 96.736 100.728C97.0987 99.768 97.3653 98.5947 97.536 97.208C97.728 95.8213 97.856 94.4453 97.92 93.08ZM97.888 84.76C97.824 84.4827 97.7067 84.12 97.536 83.672C97.3867 83.2027 97.2267 82.7227 97.056 82.232C96.8853 81.72 96.7147 81.2933 96.544 80.952C96.864 80.8453 97.1627 80.6533 97.44 80.376C97.7173 80.0773 98.0053 79.6933 98.304 79.224C98.4533 78.9893 98.6667 78.616 98.944 78.104C99.2213 77.592 99.52 76.984 99.84 76.28C100.181 75.576 100.501 74.808 100.8 73.976C101.12 73.144 101.397 72.312 101.632 71.48L105.632 73.08C105.205 74.2107 104.693 75.352 104.096 76.504C103.499 77.656 102.869 78.7653 102.208 79.832C101.568 80.8773 100.917 81.816 100.256 82.648V82.744C100.256 82.744 100.139 82.8187 99.904 82.968C99.6693 83.096 99.392 83.2667 99.072 83.48C98.752 83.6933 98.4747 83.9173 98.24 84.152C98.0053 84.3653 97.888 84.568 97.888 84.76ZM97.888 84.76L97.76 81.688L99.52 80.536L105.056 80.184C104.949 80.7173 104.853 81.336 104.768 82.04C104.683 82.7227 104.629 83.288 104.608 83.736C103.392 83.8427 102.379 83.9493 101.568 84.056C100.779 84.1413 100.139 84.2267 99.648 84.312C99.1787 84.376 98.8053 84.4507 98.528 84.536C98.272 84.6 98.0587 84.6747 97.888 84.76ZM98.144 92.312C98.08 92.0347 97.9627 91.6613 97.792 91.192C97.6427 90.7227 97.472 90.232 97.28 89.72C97.1093 89.1867 96.9387 88.7387 96.768 88.376C97.1947 88.2693 97.6 88.0347 97.984 87.672C98.368 87.3093 98.8053 86.8293 99.296 86.232C99.552 85.9333 99.9253 85.4533 100.416 84.792C100.907 84.1093 101.44 83.2987 102.016 82.36C102.592 81.4 103.168 80.376 103.744 79.288C104.341 78.1787 104.864 77.0693 105.312 75.96L108.992 78.232C108.288 79.64 107.477 81.0587 106.56 82.488C105.643 83.9173 104.672 85.2933 103.648 86.616C102.624 87.9173 101.6 89.1013 100.576 90.168V90.296C100.576 90.296 100.448 90.3707 100.192 90.52C99.9573 90.648 99.68 90.8187 99.36 91.032C99.04 91.2453 98.752 91.4693 98.496 91.704C98.2613 91.9173 98.144 92.12 98.144 92.312ZM98.144 92.312L97.952 89.144L99.744 87.928L107.872 87C107.787 87.5333 107.712 88.152 107.648 88.856C107.584 89.56 107.552 90.1253 107.552 90.552C105.76 90.808 104.288 91.0213 103.136 91.192C102.005 91.3627 101.109 91.512 100.448 91.64C99.808 91.768 99.3173 91.8853 98.976 91.992C98.6347 92.0987 98.3573 92.2053 98.144 92.312ZM104.832 92.984L107.68 92.152C107.979 93.176 108.256 94.2853 108.512 95.48C108.768 96.6533 108.949 97.6773 109.056 98.552L106.048 99.48C105.963 98.6053 105.803 97.56 105.568 96.344C105.333 95.128 105.088 94.008 104.832 92.984ZM129.088 74.904H141.344V79.288H129.088V74.904ZM141.952 78.168H155.808V82.616H141.952V78.168ZM132.928 76.728H137.536V92.856H132.928V76.728ZM153.632 78.168H158.208C158.208 78.168 158.208 78.296 158.208 78.552C158.208 78.808 158.208 79.1067 158.208 79.448C158.208 79.768 158.197 80.024 158.176 80.216C158.112 83.4373 158.037 86.1893 157.952 88.472C157.867 90.7333 157.76 92.6107 157.632 94.104C157.525 95.576 157.376 96.7493 157.184 97.624C156.992 98.4773 156.757 99.096 156.48 99.48C156.032 100.141 155.573 100.6 155.104 100.856C154.635 101.133 154.08 101.325 153.44 101.432C152.885 101.539 152.203 101.603 151.392 101.624C150.603 101.645 149.771 101.645 148.896 101.624C148.875 100.963 148.725 100.195 148.448 99.32C148.192 98.4453 147.861 97.688 147.456 97.048C148.224 97.112 148.939 97.1547 149.6 97.176C150.261 97.176 150.773 97.176 151.136 97.176C151.435 97.176 151.669 97.1333 151.84 97.048C152.032 96.9627 152.213 96.8133 152.384 96.6C152.576 96.3653 152.736 95.8747 152.864 95.128C153.013 94.3813 153.131 93.3147 153.216 91.928C153.301 90.5413 153.376 88.8027 153.44 86.712C153.504 84.6 153.568 82.0613 153.632 79.096V78.168ZM128.64 91.992C129.749 91.7787 131.008 91.512 132.416 91.192C133.845 90.8507 135.339 90.488 136.896 90.104C138.475 89.6987 140.032 89.2933 141.568 88.888L142.176 93.304C140.064 93.944 137.909 94.5733 135.712 95.192C133.536 95.8107 131.541 96.3653 129.728 96.856L128.64 91.992ZM145.92 72.152H150.656C150.635 74.9253 150.592 77.56 150.528 80.056C150.464 82.5307 150.283 84.856 149.984 87.032C149.685 89.1867 149.205 91.192 148.544 93.048C147.883 94.904 146.955 96.5893 145.76 98.104C144.565 99.5973 143.019 100.931 141.12 102.104C140.907 101.699 140.608 101.251 140.224 100.76C139.861 100.291 139.467 99.832 139.04 99.384C138.635 98.936 138.24 98.5733 137.856 98.296C139.563 97.3147 140.928 96.1947 141.952 94.936C142.997 93.656 143.797 92.2267 144.352 90.648C144.907 89.0693 145.291 87.3413 145.504 85.464C145.717 83.5653 145.835 81.5173 145.856 79.32C145.877 77.1013 145.899 74.712 145.92 72.152ZM175.808 86.744L180.544 85.976C180.8 86.488 181.024 87.064 181.216 87.704C181.429 88.344 181.579 88.9093 181.664 89.4L176.736 90.36C176.715 89.8693 176.608 89.2827 176.416 88.6C176.245 87.9173 176.043 87.2987 175.808 86.744ZM166.432 87.928H190.656V91.512H166.432V87.928ZM175.424 92.76H184.224V96.248H175.424V92.76ZM183.072 92.76H187.68C187.68 92.76 187.669 92.952 187.648 93.336C187.648 93.72 187.627 94.04 187.584 94.296C187.499 95.512 187.392 96.5467 187.264 97.4C187.136 98.2533 186.976 98.9467 186.784 99.48C186.613 100.013 186.389 100.429 186.112 100.728C185.707 101.133 185.269 101.411 184.8 101.56C184.331 101.731 183.819 101.837 183.264 101.88C182.795 101.944 182.176 101.976 181.408 101.976C180.661 101.997 179.851 101.997 178.976 101.976C178.955 101.379 178.827 100.717 178.592 99.992C178.379 99.288 178.101 98.68 177.76 98.168C178.443 98.232 179.093 98.2747 179.712 98.296C180.331 98.3173 180.8 98.328 181.12 98.328C181.355 98.328 181.557 98.3067 181.728 98.264C181.92 98.2213 182.091 98.1467 182.24 98.04C182.453 97.8267 182.624 97.3573 182.752 96.632C182.88 95.8853 182.987 94.7653 183.072 93.272V92.76ZM173.568 89.592H178.208C178.08 91.0427 177.867 92.3973 177.568 93.656C177.269 94.9147 176.789 96.0667 176.128 97.112C175.467 98.1573 174.528 99.0853 173.312 99.896C172.117 100.728 170.539 101.443 168.576 102.04C168.448 101.677 168.245 101.261 167.968 100.792C167.691 100.344 167.381 99.896 167.04 99.448C166.72 99.0213 166.4 98.6693 166.08 98.392C167.701 97.9653 168.992 97.464 169.952 96.888C170.912 96.312 171.627 95.6613 172.096 94.936C172.587 94.1893 172.928 93.3787 173.12 92.504C173.333 91.608 173.483 90.6373 173.568 89.592ZM167.168 78.104H188.96V86.232H167.168V82.744H184.384V81.592H167.168V78.104ZM185.28 71.704L188.768 75.128C187.104 75.4907 185.323 75.8213 183.424 76.12C181.525 76.3973 179.573 76.6427 177.568 76.856C175.563 77.0693 173.557 77.2507 171.552 77.4C169.568 77.528 167.627 77.624 165.728 77.688C165.643 77.176 165.483 76.568 165.248 75.864C165.013 75.1387 164.789 74.552 164.576 74.104C166.432 73.9973 168.309 73.8693 170.208 73.72C172.107 73.5707 173.963 73.4 175.776 73.208C177.611 72.9947 179.328 72.7707 180.928 72.536C182.549 72.28 184 72.0027 185.28 71.704ZM164.544 74.104H169.152V84.792C169.152 86.0933 169.088 87.5333 168.96 89.112C168.832 90.6907 168.587 92.3013 168.224 93.944C167.861 95.5653 167.339 97.1227 166.656 98.616C165.995 100.088 165.12 101.389 164.032 102.52C163.819 102.2 163.499 101.805 163.072 101.336C162.667 100.888 162.24 100.44 161.792 99.992C161.365 99.5653 161.013 99.256 160.736 99.064C161.611 98.0827 162.304 97.0053 162.816 95.832C163.328 94.6373 163.701 93.4107 163.936 92.152C164.192 90.872 164.352 89.6027 164.416 88.344C164.501 87.0853 164.544 85.8907 164.544 84.76V74.104Z" fill="black"/>
    <defs>
        <clipPath id="clip0_1202_743">
            <rect width="20" height="21" fill="white"/>
        </clipPath>
    </defs>
</svg>
